<?xml version="1.0" encoding="UTF-8" standalone="no"?>
<!DOCTYPE svg PUBLIC "-//W3C//DTD SVG 1.1//EN"
 "http://www.w3.org/Graphics/SVG/1.1/DTD/svg11.dtd">
<!-- Generated by graphviz version 2.47.0 (20210316.0004)
 -->
<!-- Title: dependencies Pages: 1 -->
<svg width="3442pt" height="284pt"
 viewBox="0.00 0.00 3442.00 284.00" xmlns="http://www.w3.org/2000/svg" xmlns:xlink="http://www.w3.org/1999/xlink">
<g id="graph0" class="graph" transform="scale(1 1) rotate(0) translate(4 280)">
<title>dependencies</title>
<polygon fill="white" stroke="transparent" points="-4,4 -4,-280 3438,-280 3438,4 -4,4"/>
<text text-anchor="start" x="1696.01" y="-42.4" font-family="Times-12" font-weight="bold" font-size="14.00">Legend</text>
<polygon fill="#ffffb3" stroke="transparent" points="1483,-10 1483,-30 1503,-30 1503,-10 1483,-10"/>
<text text-anchor="start" x="1506.63" y="-15.4" font-family="Times-12" font-size="14.00"> &#160;Declarations</text>
<polygon fill="#8dd3c7" stroke="transparent" points="1596,-10 1596,-30 1616,-30 1616,-10 1596,-10"/>
<text text-anchor="start" x="1619.73" y="-15.4" font-family="Times-12" font-size="14.00"> &#160;Module</text>
<polygon fill="#80b1d3" stroke="transparent" points="1682,-10 1682,-30 1702,-30 1702,-10 1682,-10"/>
<text text-anchor="start" x="1705.78" y="-15.4" font-family="Times-12" font-size="14.00"> &#160;Bootstrap</text>
<polygon fill="#fdb462" stroke="transparent" points="1779,-10 1779,-30 1799,-30 1799,-10 1779,-10"/>
<text text-anchor="start" x="1802.67" y="-15.4" font-family="Times-12" font-size="14.00"> &#160;Providers</text>
<polygon fill="#fb8072" stroke="transparent" points="1875,-10 1875,-30 1895,-30 1895,-10 1875,-10"/>
<text text-anchor="start" x="1898.73" y="-15.4" font-family="Times-12" font-size="14.00"> &#160;Exports</text>
<g id="clust1" class="cluster">
<title>cluster_AppModule</title>
<polygon fill="none" stroke="black" stroke-dasharray="1,5" points="8,-70 8,-268 3426,-268 3426,-70 8,-70"/>
</g>
<g id="clust23" class="cluster">
<title>cluster_AppModule_imports</title>
<polygon fill="none" stroke="black" points="3274,-78 3274,-130 3418,-130 3418,-78 3274,-78"/>
</g>
<g id="clust25" class="cluster">
<title>cluster_AppModule_bootstrap</title>
<polygon fill="none" stroke="black" points="1778,-208 1778,-260 1902,-260 1902,-208 1778,-208"/>
</g>
<g id="clust26" class="cluster">
<title>cluster_AppModule_providers</title>
<polygon fill="none" stroke="black" points="3104,-78 3104,-130 3266,-130 3266,-78 3104,-78"/>
</g>
<g id="clust2" class="cluster">
<title>cluster_AppModule_declarations</title>
<polygon fill="none" stroke="black" points="16,-78 16,-130 3096,-130 3096,-78 16,-78"/>
</g>
<!-- AdminComponent -->
<g id="node1" class="node">
<title>AdminComponent</title>
<polygon fill="#ffffb3" stroke="black" points="3088.22,-122 2967.78,-122 2967.78,-86 3088.22,-86 3088.22,-122"/>
<text text-anchor="middle" x="3028" y="-99.8" font-family="Times,serif" font-size="14.00">AdminComponent</text>
</g>
<!-- AppModule -->
<g id="node21" class="node">
<title>AppModule</title>
<polygon fill="#8dd3c7" stroke="black" points="1881.66,-187 1878.66,-191 1857.66,-191 1854.66,-187 1798.34,-187 1798.34,-151 1881.66,-151 1881.66,-187"/>
<text text-anchor="middle" x="1840" y="-164.8" font-family="Times,serif" font-size="14.00">AppModule</text>
</g>
<!-- AdminComponent&#45;&gt;AppModule -->
<g id="edge1" class="edge">
<title>AdminComponent&#45;&gt;AppModule</title>
<path fill="none" stroke="black" d="M3028,-122.29C3028,-144.21 3028,-178 3028,-178 3028,-178 1891.93,-178 1891.93,-178"/>
<polygon fill="black" stroke="black" points="1891.93,-174.5 1881.93,-178 1891.93,-181.5 1891.93,-174.5"/>
</g>
<!-- AppComponent -->
<g id="node2" class="node">
<title>AppComponent</title>
<polygon fill="#ffffb3" stroke="black" points="2949.94,-122 2844.06,-122 2844.06,-86 2949.94,-86 2949.94,-122"/>
<text text-anchor="middle" x="2897" y="-99.8" font-family="Times,serif" font-size="14.00">AppComponent</text>
</g>
<!-- AppComponent&#45;&gt;AppModule -->
<g id="edge2" class="edge">
<title>AppComponent&#45;&gt;AppModule</title>
<path fill="none" stroke="black" d="M2897,-122.03C2897,-142.77 2897,-174 2897,-174 2897,-174 1891.76,-174 1891.76,-174"/>
<polygon fill="black" stroke="black" points="1891.76,-170.5 1881.76,-174 1891.76,-177.5 1891.76,-170.5"/>
</g>
<!-- BuyProductComponent -->
<g id="node3" class="node">
<title>BuyProductComponent</title>
<polygon fill="#ffffb3" stroke="black" points="2826.22,-122 2677.78,-122 2677.78,-86 2826.22,-86 2826.22,-122"/>
<text text-anchor="middle" x="2752" y="-99.8" font-family="Times,serif" font-size="14.00">BuyProductComponent</text>
</g>
<!-- BuyProductComponent&#45;&gt;AppModule -->
<g id="edge3" class="edge">
<title>BuyProductComponent&#45;&gt;AppModule</title>
<path fill="none" stroke="black" d="M2752,-122.31C2752,-142.15 2752,-171 2752,-171 2752,-171 1891.86,-171 1891.86,-171"/>
<polygon fill="black" stroke="black" points="1891.86,-167.5 1881.86,-171 1891.86,-174.5 1891.86,-167.5"/>
</g>
<!-- CartComponent -->
<g id="node4" class="node">
<title>CartComponent</title>
<polygon fill="#ffffb3" stroke="black" points="2659.94,-122 2554.06,-122 2554.06,-86 2659.94,-86 2659.94,-122"/>
<text text-anchor="middle" x="2607" y="-99.8" font-family="Times,serif" font-size="14.00">CartComponent</text>
</g>
<!-- CartComponent&#45;&gt;AppModule -->
<g id="edge4" class="edge">
<title>CartComponent&#45;&gt;AppModule</title>
<path fill="none" stroke="black" d="M2607,-122.17C2607,-141.09 2607,-168 2607,-168 2607,-168 1891.78,-168 1891.78,-168"/>
<polygon fill="black" stroke="black" points="1891.78,-164.5 1881.78,-168 1891.78,-171.5 1891.78,-164.5"/>
</g>
<!-- FooterComponent -->
<g id="node5" class="node">
<title>FooterComponent</title>
<polygon fill="#ffffb3" stroke="black" points="2535.88,-122 2418.12,-122 2418.12,-86 2535.88,-86 2535.88,-122"/>
<text text-anchor="middle" x="2477" y="-99.8" font-family="Times,serif" font-size="14.00">FooterComponent</text>
</g>
<!-- FooterComponent&#45;&gt;AppModule -->
<g id="edge5" class="edge">
<title>FooterComponent&#45;&gt;AppModule</title>
<path fill="none" stroke="black" d="M2477,-122.3C2477,-140.27 2477,-165 2477,-165 2477,-165 1891.8,-165 1891.8,-165"/>
<polygon fill="black" stroke="black" points="1891.8,-161.5 1881.8,-165 1891.8,-168.5 1891.8,-161.5"/>
</g>
<!-- ForbiddenComponent -->
<g id="node6" class="node">
<title>ForbiddenComponent</title>
<polygon fill="#ffffb3" stroke="black" points="2400.38,-122 2261.62,-122 2261.62,-86 2400.38,-86 2400.38,-122"/>
<text text-anchor="middle" x="2331" y="-99.8" font-family="Times,serif" font-size="14.00">ForbiddenComponent</text>
</g>
<!-- ForbiddenComponent&#45;&gt;AppModule -->
<g id="edge6" class="edge">
<title>ForbiddenComponent&#45;&gt;AppModule</title>
<path fill="none" stroke="black" d="M2331,-122.04C2331,-138.73 2331,-161 2331,-161 2331,-161 1891.86,-161 1891.86,-161"/>
<polygon fill="black" stroke="black" points="1891.86,-157.5 1881.86,-161 1891.86,-164.5 1891.86,-157.5"/>
</g>
<!-- HeaderComponent -->
<g id="node7" class="node">
<title>HeaderComponent</title>
<polygon fill="#ffffb3" stroke="black" points="2243.74,-122 2122.26,-122 2122.26,-86 2243.74,-86 2243.74,-122"/>
<text text-anchor="middle" x="2183" y="-99.8" font-family="Times,serif" font-size="14.00">HeaderComponent</text>
</g>
<!-- HeaderComponent&#45;&gt;AppModule -->
<g id="edge7" class="edge">
<title>HeaderComponent&#45;&gt;AppModule</title>
<path fill="none" stroke="black" d="M2183,-122.28C2183,-137.95 2183,-158 2183,-158 2183,-158 1891.72,-158 1891.72,-158"/>
<polygon fill="black" stroke="black" points="1891.72,-154.5 1881.72,-158 1891.72,-161.5 1891.72,-154.5"/>
</g>
<!-- HomeComponent -->
<g id="node8" class="node">
<title>HomeComponent</title>
<polygon fill="#ffffb3" stroke="black" points="2103.55,-122 1988.45,-122 1988.45,-86 2103.55,-86 2103.55,-122"/>
<text text-anchor="middle" x="2046" y="-99.8" font-family="Times,serif" font-size="14.00">HomeComponent</text>
</g>
<!-- HomeComponent&#45;&gt;AppModule -->
<g id="edge8" class="edge">
<title>HomeComponent&#45;&gt;AppModule</title>
<path fill="none" stroke="black" d="M2046,-122.12C2046,-136.78 2046,-155 2046,-155 2046,-155 1891.69,-155 1891.69,-155"/>
<polygon fill="black" stroke="black" points="1891.69,-151.5 1881.69,-155 1891.69,-158.5 1891.69,-151.5"/>
</g>
<!-- LoginComponent -->
<g id="node9" class="node">
<title>LoginComponent</title>
<polygon fill="#ffffb3" stroke="black" points="1970.28,-122 1855.72,-122 1855.72,-86 1970.28,-86 1970.28,-122"/>
<text text-anchor="middle" x="1913" y="-99.8" font-family="Times,serif" font-size="14.00">LoginComponent</text>
</g>
<!-- LoginComponent&#45;&gt;AppModule -->
<g id="edge9" class="edge">
<title>LoginComponent&#45;&gt;AppModule</title>
<path fill="none" stroke="black" d="M1868.72,-122.11C1868.72,-122.11 1868.72,-140.99 1868.72,-140.99"/>
<polygon fill="black" stroke="black" points="1865.22,-140.99 1868.72,-150.99 1872.22,-140.99 1865.22,-140.99"/>
</g>
<!-- MyOrdersComponent -->
<g id="node10" class="node">
<title>MyOrdersComponent</title>
<polygon fill="#ffffb3" stroke="black" points="1837.36,-122 1698.64,-122 1698.64,-86 1837.36,-86 1837.36,-122"/>
<text text-anchor="middle" x="1768" y="-99.8" font-family="Times,serif" font-size="14.00">MyOrdersComponent</text>
</g>
<!-- MyOrdersComponent&#45;&gt;AppModule -->
<g id="edge10" class="edge">
<title>MyOrdersComponent&#45;&gt;AppModule</title>
<path fill="none" stroke="black" d="M1817.8,-122.11C1817.8,-122.11 1817.8,-140.99 1817.8,-140.99"/>
<polygon fill="black" stroke="black" points="1814.3,-140.99 1817.8,-150.99 1821.3,-140.99 1814.3,-140.99"/>
</g>
<!-- OrderConfirmationComponent -->
<g id="node11" class="node">
<title>OrderConfirmationComponent</title>
<polygon fill="#ffffb3" stroke="black" points="1680.91,-122 1491.09,-122 1491.09,-86 1680.91,-86 1680.91,-122"/>
<text text-anchor="middle" x="1586" y="-99.8" font-family="Times,serif" font-size="14.00">OrderConfirmationComponent</text>
</g>
<!-- OrderConfirmationComponent&#45;&gt;AppModule -->
<g id="edge11" class="edge">
<title>OrderConfirmationComponent&#45;&gt;AppModule</title>
<path fill="none" stroke="black" d="M1586,-122.12C1586,-136.78 1586,-155 1586,-155 1586,-155 1788.34,-155 1788.34,-155"/>
<polygon fill="black" stroke="black" points="1788.34,-158.5 1798.34,-155 1788.34,-151.5 1788.34,-158.5"/>
</g>
<!-- OrderErrorComponent -->
<g id="node12" class="node">
<title>OrderErrorComponent</title>
<polygon fill="#ffffb3" stroke="black" points="1473.51,-122 1330.49,-122 1330.49,-86 1473.51,-86 1473.51,-122"/>
<text text-anchor="middle" x="1402" y="-99.8" font-family="Times,serif" font-size="14.00">OrderErrorComponent</text>
</g>
<!-- OrderErrorComponent&#45;&gt;AppModule -->
<g id="edge12" class="edge">
<title>OrderErrorComponent&#45;&gt;AppModule</title>
<path fill="none" stroke="black" d="M1402,-122.28C1402,-137.95 1402,-158 1402,-158 1402,-158 1788,-158 1788,-158"/>
<polygon fill="black" stroke="black" points="1788,-161.5 1798,-158 1788,-154.5 1788,-161.5"/>
</g>
<!-- OrdersComponent -->
<g id="node13" class="node">
<title>OrdersComponent</title>
<polygon fill="#ffffb3" stroke="black" points="1312.92,-122 1193.08,-122 1193.08,-86 1312.92,-86 1312.92,-122"/>
<text text-anchor="middle" x="1253" y="-99.8" font-family="Times,serif" font-size="14.00">OrdersComponent</text>
</g>
<!-- OrdersComponent&#45;&gt;AppModule -->
<g id="edge13" class="edge">
<title>OrdersComponent&#45;&gt;AppModule</title>
<path fill="none" stroke="black" d="M1253,-122.04C1253,-138.73 1253,-161 1253,-161 1253,-161 1788.25,-161 1788.25,-161"/>
<polygon fill="black" stroke="black" points="1788.26,-164.5 1798.25,-161 1788.25,-157.5 1788.26,-164.5"/>
</g>
<!-- ProductViewDetailsComponent -->
<g id="node14" class="node">
<title>ProductViewDetailsComponent</title>
<polygon fill="#ffffb3" stroke="black" points="1175.35,-122 980.65,-122 980.65,-86 1175.35,-86 1175.35,-122"/>
<text text-anchor="middle" x="1078" y="-99.8" font-family="Times,serif" font-size="14.00">ProductViewDetailsComponent</text>
</g>
<!-- ProductViewDetailsComponent&#45;&gt;AppModule -->
<g id="edge14" class="edge">
<title>ProductViewDetailsComponent&#45;&gt;AppModule</title>
<path fill="none" stroke="black" d="M1078,-122.3C1078,-140.27 1078,-165 1078,-165 1078,-165 1788.22,-165 1788.22,-165"/>
<polygon fill="black" stroke="black" points="1788.22,-168.5 1798.22,-165 1788.22,-161.5 1788.22,-168.5"/>
</g>
<!-- RegisterComponent -->
<g id="node15" class="node">
<title>RegisterComponent</title>
<polygon fill="#ffffb3" stroke="black" points="962.98,-122 835.02,-122 835.02,-86 962.98,-86 962.98,-122"/>
<text text-anchor="middle" x="899" y="-99.8" font-family="Times,serif" font-size="14.00">RegisterComponent</text>
</g>
<!-- RegisterComponent&#45;&gt;AppModule -->
<g id="edge15" class="edge">
<title>RegisterComponent&#45;&gt;AppModule</title>
<path fill="none" stroke="black" d="M899,-122.17C899,-141.09 899,-168 899,-168 899,-168 1788.05,-168 1788.05,-168"/>
<polygon fill="black" stroke="black" points="1788.05,-171.5 1798.05,-168 1788.05,-164.5 1788.05,-171.5"/>
</g>
<!-- SaveProductComponent -->
<g id="node16" class="node">
<title>SaveProductComponent</title>
<polygon fill="#ffffb3" stroke="black" points="817.09,-122 664.91,-122 664.91,-86 817.09,-86 817.09,-122"/>
<text text-anchor="middle" x="741" y="-99.8" font-family="Times,serif" font-size="14.00">SaveProductComponent</text>
</g>
<!-- SaveProductComponent&#45;&gt;AppModule -->
<g id="edge16" class="edge">
<title>SaveProductComponent&#45;&gt;AppModule</title>
<path fill="none" stroke="black" d="M741,-122.31C741,-142.15 741,-171 741,-171 741,-171 1788.26,-171 1788.26,-171"/>
<polygon fill="black" stroke="black" points="1788.26,-174.5 1798.26,-171 1788.26,-167.5 1788.26,-174.5"/>
</g>
<!-- SearchBarComponent -->
<g id="node17" class="node">
<title>SearchBarComponent</title>
<polygon fill="#ffffb3" stroke="black" points="646.63,-122 507.37,-122 507.37,-86 646.63,-86 646.63,-122"/>
<text text-anchor="middle" x="577" y="-99.8" font-family="Times,serif" font-size="14.00">SearchBarComponent</text>
</g>
<!-- SearchBarComponent&#45;&gt;AppModule -->
<g id="edge17" class="edge">
<title>SearchBarComponent&#45;&gt;AppModule</title>
<path fill="none" stroke="black" d="M577,-122.03C577,-142.77 577,-174 577,-174 577,-174 1788.34,-174 1788.34,-174"/>
<polygon fill="black" stroke="black" points="1788.34,-177.5 1798.34,-174 1788.34,-170.5 1788.34,-177.5"/>
</g>
<!-- ShowProductDetailsComponent -->
<g id="node18" class="node">
<title>ShowProductDetailsComponent</title>
<polygon fill="#ffffb3" stroke="black" points="489.42,-122 292.58,-122 292.58,-86 489.42,-86 489.42,-122"/>
<text text-anchor="middle" x="391" y="-99.8" font-family="Times,serif" font-size="14.00">ShowProductDetailsComponent</text>
</g>
<!-- ShowProductDetailsComponent&#45;&gt;AppModule -->
<g id="edge18" class="edge">
<title>ShowProductDetailsComponent&#45;&gt;AppModule</title>
<path fill="none" stroke="black" d="M391,-122.29C391,-144.21 391,-178 391,-178 391,-178 1788.2,-178 1788.2,-178"/>
<polygon fill="black" stroke="black" points="1788.2,-181.5 1798.2,-178 1788.2,-174.5 1788.2,-181.5"/>
</g>
<!-- SpinnerComponent -->
<g id="node19" class="node">
<title>SpinnerComponent</title>
<polygon fill="#ffffb3" stroke="black" points="274.38,-122 149.62,-122 149.62,-86 274.38,-86 274.38,-122"/>
<text text-anchor="middle" x="212" y="-99.8" font-family="Times,serif" font-size="14.00">SpinnerComponent</text>
</g>
<!-- SpinnerComponent&#45;&gt;AppModule -->
<g id="edge19" class="edge">
<title>SpinnerComponent&#45;&gt;AppModule</title>
<path fill="none" stroke="black" d="M212,-122.25C212,-145.02 212,-181 212,-181 212,-181 1788.12,-181 1788.12,-181"/>
<polygon fill="black" stroke="black" points="1788.12,-184.5 1798.12,-181 1788.12,-177.5 1788.12,-184.5"/>
</g>
<!-- UserComponent -->
<g id="node20" class="node">
<title>UserComponent</title>
<polygon fill="#ffffb3" stroke="black" points="131.76,-122 24.24,-122 24.24,-86 131.76,-86 131.76,-122"/>
<text text-anchor="middle" x="78" y="-99.8" font-family="Times,serif" font-size="14.00">UserComponent</text>
</g>
<!-- UserComponent&#45;&gt;AppModule -->
<g id="edge20" class="edge">
<title>UserComponent&#45;&gt;AppModule</title>
<path fill="none" stroke="black" d="M78,-122.15C78,-145.76 78,-184 78,-184 78,-184 1788.18,-184 1788.18,-184"/>
<polygon fill="black" stroke="black" points="1788.18,-187.5 1798.18,-184 1788.18,-180.5 1788.18,-187.5"/>
</g>
<!-- AppComponent  -->
<g id="node23" class="node">
<title>AppComponent </title>
<polygon fill="#80b1d3" stroke="black" points="1894.44,-252 1785.56,-252 1785.56,-216 1894.44,-216 1894.44,-252"/>
<text text-anchor="middle" x="1840" y="-229.8" font-family="Times,serif" font-size="14.00">AppComponent </text>
</g>
<!-- AppModule&#45;&gt;AppComponent  -->
<g id="edge22" class="edge">
<title>AppModule&#45;&gt;AppComponent </title>
<path fill="none" stroke="black" stroke-dasharray="1,5" d="M1840,-187.11C1840,-187.11 1840,-205.99 1840,-205.99"/>
<polygon fill="black" stroke="black" points="1836.5,-205.99 1840,-215.99 1843.5,-205.99 1836.5,-205.99"/>
</g>
<!-- AppRoutingModule -->
<g id="node22" class="node">
<title>AppRoutingModule</title>
<polygon fill="#8dd3c7" stroke="black" points="3410.27,-122 3407.27,-126 3386.27,-126 3383.27,-122 3281.73,-122 3281.73,-86 3410.27,-86 3410.27,-122"/>
<text text-anchor="middle" x="3346" y="-99.8" font-family="Times,serif" font-size="14.00">AppRoutingModule</text>
</g>
<!-- AppRoutingModule&#45;&gt;AppModule -->
<g id="edge21" class="edge">
<title>AppRoutingModule&#45;&gt;AppModule</title>
<path fill="none" stroke="black" d="M3346,-122.15C3346,-145.76 3346,-184 3346,-184 3346,-184 1891.85,-184 1891.85,-184"/>
<polygon fill="black" stroke="black" points="1891.85,-180.5 1881.85,-184 1891.85,-187.5 1891.85,-180.5"/>
</g>
<!-- AuthInterceptor -->
<g id="node24" class="node">
<title>AuthInterceptor</title>
<ellipse fill="#fdb462" stroke="black" cx="3185" cy="-104" rx="72.91" ry="18"/>
<text text-anchor="middle" x="3185" y="-99.8" font-family="Times,serif" font-size="14.00">AuthInterceptor</text>
</g>
<!-- AuthInterceptor&#45;&gt;AppModule -->
<g id="edge23" class="edge">
<title>AuthInterceptor&#45;&gt;AppModule</title>
<path fill="none" stroke="black" d="M3185,-122.25C3185,-145.02 3185,-181 3185,-181 3185,-181 1891.73,-181 1891.73,-181"/>
<polygon fill="black" stroke="black" points="1891.73,-177.5 1881.73,-181 1891.73,-184.5 1891.73,-177.5"/>
</g>
</g>
</svg>
