<?xml version="1.0" encoding="UTF-8" standalone="no"?>
<!DOCTYPE svg PUBLIC "-//W3C//DTD SVG 1.1//EN"
 "http://www.w3.org/Graphics/SVG/1.1/DTD/svg11.dtd">
<!-- Generated by graphviz version 2.47.0 (20210316.0004)
 -->
<!-- Title: dependencies Pages: 1 -->
<svg width="3442pt" height="284pt"
 viewBox="0.00 0.00 3442.00 284.00" xmlns="http://www.w3.org/2000/svg" xmlns:xlink="http://www.w3.org/1999/xlink">
<g id="graph0" class="graph" transform="scale(1 1) rotate(0) translate(4 280)">
<title>dependencies</title>
<polygon fill="white" stroke="transparent" points="-4,4 -4,-280 3438,-280 3438,4 -4,4"/>
<text text-anchor="start" x="1696.01" y="-42.4" font-family="Times-12" font-weight="bold" font-size="14.00">Legend</text>
<polygon fill="#ffffb3" stroke="transparent" points="1483,-10 1483,-30 1503,-30 1503,-10 1483,-10"/>
<text text-anchor="start" x="1506.63" y="-15.4" font-family="Times-12" font-size="14.00"> &#160;Declarations</text>
<polygon fill="#8dd3c7" stroke="transparent" points="1596,-10 1596,-30 1616,-30 1616,-10 1596,-10"/>
<text text-anchor="start" x="1619.73" y="-15.4" font-family="Times-12" font-size="14.00"> &#160;Module</text>
<polygon fill="#80b1d3" stroke="transparent" points="1682,-10 1682,-30 1702,-30 1702,-10 1682,-10"/>
<text text-anchor="start" x="1705.78" y="-15.4" font-family="Times-12" font-size="14.00"> &#160;Bootstrap</text>
<polygon fill="#fdb462" stroke="transparent" points="1779,-10 1779,-30 1799,-30 1799,-10 1779,-10"/>
<text text-anchor="start" x="1802.67" y="-15.4" font-family="Times-12" font-size="14.00"> &#160;Providers</text>
<polygon fill="#fb8072" stroke="transparent" points="1875,-10 1875,-30 1895,-30 1895,-10 1875,-10"/>
<text text-anchor="start" x="1898.73" y="-15.4" font-family="Times-12" font-size="14.00"> &#160;Exports</text>
<g id="clust1" class="cluster">
<title>cluster_AppModule</title>
<polygon fill="none" stroke="black" stroke-dasharray="1,5" points="8,-70 8,-268 3426,-268 3426,-70 8,-70"/>
</g>
<g id="clust2" class="cluster">
<title>cluster_AppModule_declarations</title>
<polygon fill="none" stroke="black" points="338,-78 338,-130 3418,-130 3418,-78 338,-78"/>
</g>
<g id="clust23" class="cluster">
<title>cluster_AppModule_imports</title>
<polygon fill="none" stroke="black" points="186,-78 186,-130 330,-130 330,-78 186,-78"/>
</g>
<g id="clust25" class="cluster">
<title>cluster_AppModule_bootstrap</title>
<polygon fill="none" stroke="black" points="1754,-208 1754,-260 1878,-260 1878,-208 1754,-208"/>
</g>
<g id="clust26" class="cluster">
<title>cluster_AppModule_providers</title>
<polygon fill="none" stroke="black" points="16,-78 16,-130 178,-130 178,-78 16,-78"/>
</g>
<!-- AdminComponent -->
<g id="node1" class="node">
<title>AdminComponent</title>
<polygon fill="#ffffb3" stroke="black" points="3410.22,-122 3289.78,-122 3289.78,-86 3410.22,-86 3410.22,-122"/>
<text text-anchor="middle" x="3350" y="-99.8" font-family="Times,serif" font-size="14.00">AdminComponent</text>
</g>
<!-- AppModule -->
<g id="node21" class="node">
<title>AppModule</title>
<polygon fill="#8dd3c7" stroke="black" points="1857.66,-187 1854.66,-191 1833.66,-191 1830.66,-187 1774.34,-187 1774.34,-151 1857.66,-151 1857.66,-187"/>
<text text-anchor="middle" x="1816" y="-164.8" font-family="Times,serif" font-size="14.00">AppModule</text>
</g>
<!-- AdminComponent&#45;&gt;AppModule -->
<g id="edge1" class="edge">
<title>AdminComponent&#45;&gt;AppModule</title>
<path fill="none" stroke="black" d="M3350,-122.15C3350,-145.76 3350,-184 3350,-184 3350,-184 1867.83,-184 1867.83,-184"/>
<polygon fill="black" stroke="black" points="1867.83,-180.5 1857.83,-184 1867.83,-187.5 1867.83,-180.5"/>
</g>
<!-- AppComponent -->
<g id="node2" class="node">
<title>AppComponent</title>
<polygon fill="#ffffb3" stroke="black" points="3271.94,-122 3166.06,-122 3166.06,-86 3271.94,-86 3271.94,-122"/>
<text text-anchor="middle" x="3219" y="-99.8" font-family="Times,serif" font-size="14.00">AppComponent</text>
</g>
<!-- AppComponent&#45;&gt;AppModule -->
<g id="edge2" class="edge">
<title>AppComponent&#45;&gt;AppModule</title>
<path fill="none" stroke="black" d="M3219,-122.25C3219,-145.02 3219,-181 3219,-181 3219,-181 1867.99,-181 1867.99,-181"/>
<polygon fill="black" stroke="black" points="1867.99,-177.5 1857.99,-181 1867.99,-184.5 1867.99,-177.5"/>
</g>
<!-- BuyProductComponent -->
<g id="node3" class="node">
<title>BuyProductComponent</title>
<polygon fill="#ffffb3" stroke="black" points="3148.22,-122 2999.78,-122 2999.78,-86 3148.22,-86 3148.22,-122"/>
<text text-anchor="middle" x="3074" y="-99.8" font-family="Times,serif" font-size="14.00">BuyProductComponent</text>
</g>
<!-- BuyProductComponent&#45;&gt;AppModule -->
<g id="edge3" class="edge">
<title>BuyProductComponent&#45;&gt;AppModule</title>
<path fill="none" stroke="black" d="M3074,-122.29C3074,-144.21 3074,-178 3074,-178 3074,-178 1867.86,-178 1867.86,-178"/>
<polygon fill="black" stroke="black" points="1867.86,-174.5 1857.86,-178 1867.86,-181.5 1867.86,-174.5"/>
</g>
<!-- CartComponent -->
<g id="node4" class="node">
<title>CartComponent</title>
<polygon fill="#ffffb3" stroke="black" points="2981.94,-122 2876.06,-122 2876.06,-86 2981.94,-86 2981.94,-122"/>
<text text-anchor="middle" x="2929" y="-99.8" font-family="Times,serif" font-size="14.00">CartComponent</text>
</g>
<!-- CartComponent&#45;&gt;AppModule -->
<g id="edge4" class="edge">
<title>CartComponent&#45;&gt;AppModule</title>
<path fill="none" stroke="black" d="M2929,-122.03C2929,-142.77 2929,-174 2929,-174 2929,-174 1867.94,-174 1867.94,-174"/>
<polygon fill="black" stroke="black" points="1867.94,-170.5 1857.94,-174 1867.94,-177.5 1867.94,-170.5"/>
</g>
<!-- FooterComponent -->
<g id="node5" class="node">
<title>FooterComponent</title>
<polygon fill="#ffffb3" stroke="black" points="2857.88,-122 2740.12,-122 2740.12,-86 2857.88,-86 2857.88,-122"/>
<text text-anchor="middle" x="2799" y="-99.8" font-family="Times,serif" font-size="14.00">FooterComponent</text>
</g>
<!-- FooterComponent&#45;&gt;AppModule -->
<g id="edge5" class="edge">
<title>FooterComponent&#45;&gt;AppModule</title>
<path fill="none" stroke="black" d="M2799,-122.31C2799,-142.15 2799,-171 2799,-171 2799,-171 1867.92,-171 1867.92,-171"/>
<polygon fill="black" stroke="black" points="1867.92,-167.5 1857.92,-171 1867.92,-174.5 1867.92,-167.5"/>
</g>
<!-- ForbiddenComponent -->
<g id="node6" class="node">
<title>ForbiddenComponent</title>
<polygon fill="#ffffb3" stroke="black" points="2722.38,-122 2583.62,-122 2583.62,-86 2722.38,-86 2722.38,-122"/>
<text text-anchor="middle" x="2653" y="-99.8" font-family="Times,serif" font-size="14.00">ForbiddenComponent</text>
</g>
<!-- ForbiddenComponent&#45;&gt;AppModule -->
<g id="edge6" class="edge">
<title>ForbiddenComponent&#45;&gt;AppModule</title>
<path fill="none" stroke="black" d="M2653,-122.17C2653,-141.09 2653,-168 2653,-168 2653,-168 1867.79,-168 1867.79,-168"/>
<polygon fill="black" stroke="black" points="1867.79,-164.5 1857.79,-168 1867.79,-171.5 1867.79,-164.5"/>
</g>
<!-- HeaderComponent -->
<g id="node7" class="node">
<title>HeaderComponent</title>
<polygon fill="#ffffb3" stroke="black" points="2565.74,-122 2444.26,-122 2444.26,-86 2565.74,-86 2565.74,-122"/>
<text text-anchor="middle" x="2505" y="-99.8" font-family="Times,serif" font-size="14.00">HeaderComponent</text>
</g>
<!-- HeaderComponent&#45;&gt;AppModule -->
<g id="edge7" class="edge">
<title>HeaderComponent&#45;&gt;AppModule</title>
<path fill="none" stroke="black" d="M2505,-122.3C2505,-140.27 2505,-165 2505,-165 2505,-165 1867.81,-165 1867.81,-165"/>
<polygon fill="black" stroke="black" points="1867.81,-161.5 1857.81,-165 1867.81,-168.5 1867.81,-161.5"/>
</g>
<!-- HomeComponent -->
<g id="node8" class="node">
<title>HomeComponent</title>
<polygon fill="#ffffb3" stroke="black" points="2425.55,-122 2310.45,-122 2310.45,-86 2425.55,-86 2425.55,-122"/>
<text text-anchor="middle" x="2368" y="-99.8" font-family="Times,serif" font-size="14.00">HomeComponent</text>
</g>
<!-- HomeComponent&#45;&gt;AppModule -->
<g id="edge8" class="edge">
<title>HomeComponent&#45;&gt;AppModule</title>
<path fill="none" stroke="black" d="M2368,-122.04C2368,-138.73 2368,-161 2368,-161 2368,-161 1867.94,-161 1867.94,-161"/>
<polygon fill="black" stroke="black" points="1867.94,-157.5 1857.94,-161 1867.94,-164.5 1867.94,-157.5"/>
</g>
<!-- LoginComponent -->
<g id="node9" class="node">
<title>LoginComponent</title>
<polygon fill="#ffffb3" stroke="black" points="2292.28,-122 2177.72,-122 2177.72,-86 2292.28,-86 2292.28,-122"/>
<text text-anchor="middle" x="2235" y="-99.8" font-family="Times,serif" font-size="14.00">LoginComponent</text>
</g>
<!-- LoginComponent&#45;&gt;AppModule -->
<g id="edge9" class="edge">
<title>LoginComponent&#45;&gt;AppModule</title>
<path fill="none" stroke="black" d="M2235,-122.28C2235,-137.95 2235,-158 2235,-158 2235,-158 1867.71,-158 1867.71,-158"/>
<polygon fill="black" stroke="black" points="1867.71,-154.5 1857.71,-158 1867.71,-161.5 1867.71,-154.5"/>
</g>
<!-- MyOrdersComponent -->
<g id="node10" class="node">
<title>MyOrdersComponent</title>
<polygon fill="#ffffb3" stroke="black" points="2159.36,-122 2020.64,-122 2020.64,-86 2159.36,-86 2159.36,-122"/>
<text text-anchor="middle" x="2090" y="-99.8" font-family="Times,serif" font-size="14.00">MyOrdersComponent</text>
</g>
<!-- MyOrdersComponent&#45;&gt;AppModule -->
<g id="edge10" class="edge">
<title>MyOrdersComponent&#45;&gt;AppModule</title>
<path fill="none" stroke="black" d="M2090,-122.12C2090,-136.78 2090,-155 2090,-155 2090,-155 1867.91,-155 1867.91,-155"/>
<polygon fill="black" stroke="black" points="1867.91,-151.5 1857.91,-155 1867.91,-158.5 1867.91,-151.5"/>
</g>
<!-- OrderConfirmationComponent -->
<g id="node11" class="node">
<title>OrderConfirmationComponent</title>
<polygon fill="#ffffb3" stroke="black" points="2002.91,-122 1813.09,-122 1813.09,-86 2002.91,-86 2002.91,-122"/>
<text text-anchor="middle" x="1908" y="-99.8" font-family="Times,serif" font-size="14.00">OrderConfirmationComponent</text>
</g>
<!-- OrderConfirmationComponent&#45;&gt;AppModule -->
<g id="edge11" class="edge">
<title>OrderConfirmationComponent&#45;&gt;AppModule</title>
<path fill="none" stroke="black" d="M1835.56,-122.11C1835.56,-122.11 1835.56,-140.99 1835.56,-140.99"/>
<polygon fill="black" stroke="black" points="1832.06,-140.99 1835.56,-150.99 1839.06,-140.99 1832.06,-140.99"/>
</g>
<!-- OrderErrorComponent -->
<g id="node12" class="node">
<title>OrderErrorComponent</title>
<polygon fill="#ffffb3" stroke="black" points="1795.51,-122 1652.49,-122 1652.49,-86 1795.51,-86 1795.51,-122"/>
<text text-anchor="middle" x="1724" y="-99.8" font-family="Times,serif" font-size="14.00">OrderErrorComponent</text>
</g>
<!-- OrderErrorComponent&#45;&gt;AppModule -->
<g id="edge12" class="edge">
<title>OrderErrorComponent&#45;&gt;AppModule</title>
<path fill="none" stroke="black" d="M1784.96,-122.11C1784.96,-122.11 1784.96,-140.99 1784.96,-140.99"/>
<polygon fill="black" stroke="black" points="1781.46,-140.99 1784.96,-150.99 1788.46,-140.99 1781.46,-140.99"/>
</g>
<!-- OrdersComponent -->
<g id="node13" class="node">
<title>OrdersComponent</title>
<polygon fill="#ffffb3" stroke="black" points="1634.92,-122 1515.08,-122 1515.08,-86 1634.92,-86 1634.92,-122"/>
<text text-anchor="middle" x="1575" y="-99.8" font-family="Times,serif" font-size="14.00">OrdersComponent</text>
</g>
<!-- OrdersComponent&#45;&gt;AppModule -->
<g id="edge13" class="edge">
<title>OrdersComponent&#45;&gt;AppModule</title>
<path fill="none" stroke="black" d="M1575,-122.12C1575,-136.78 1575,-155 1575,-155 1575,-155 1764.3,-155 1764.3,-155"/>
<polygon fill="black" stroke="black" points="1764.3,-158.5 1774.3,-155 1764.3,-151.5 1764.3,-158.5"/>
</g>
<!-- ProductViewDetailsComponent -->
<g id="node14" class="node">
<title>ProductViewDetailsComponent</title>
<polygon fill="#ffffb3" stroke="black" points="1497.35,-122 1302.65,-122 1302.65,-86 1497.35,-86 1497.35,-122"/>
<text text-anchor="middle" x="1400" y="-99.8" font-family="Times,serif" font-size="14.00">ProductViewDetailsComponent</text>
</g>
<!-- ProductViewDetailsComponent&#45;&gt;AppModule -->
<g id="edge14" class="edge">
<title>ProductViewDetailsComponent&#45;&gt;AppModule</title>
<path fill="none" stroke="black" d="M1400,-122.28C1400,-137.95 1400,-158 1400,-158 1400,-158 1764.21,-158 1764.21,-158"/>
<polygon fill="black" stroke="black" points="1764.21,-161.5 1774.21,-158 1764.21,-154.5 1764.21,-161.5"/>
</g>
<!-- RegisterComponent -->
<g id="node15" class="node">
<title>RegisterComponent</title>
<polygon fill="#ffffb3" stroke="black" points="1284.98,-122 1157.02,-122 1157.02,-86 1284.98,-86 1284.98,-122"/>
<text text-anchor="middle" x="1221" y="-99.8" font-family="Times,serif" font-size="14.00">RegisterComponent</text>
</g>
<!-- RegisterComponent&#45;&gt;AppModule -->
<g id="edge15" class="edge">
<title>RegisterComponent&#45;&gt;AppModule</title>
<path fill="none" stroke="black" d="M1221,-122.04C1221,-138.73 1221,-161 1221,-161 1221,-161 1764.16,-161 1764.16,-161"/>
<polygon fill="black" stroke="black" points="1764.16,-164.5 1774.16,-161 1764.16,-157.5 1764.16,-164.5"/>
</g>
<!-- SaveProductComponent -->
<g id="node16" class="node">
<title>SaveProductComponent</title>
<polygon fill="#ffffb3" stroke="black" points="1139.09,-122 986.91,-122 986.91,-86 1139.09,-86 1139.09,-122"/>
<text text-anchor="middle" x="1063" y="-99.8" font-family="Times,serif" font-size="14.00">SaveProductComponent</text>
</g>
<!-- SaveProductComponent&#45;&gt;AppModule -->
<g id="edge16" class="edge">
<title>SaveProductComponent&#45;&gt;AppModule</title>
<path fill="none" stroke="black" d="M1063,-122.3C1063,-140.27 1063,-165 1063,-165 1063,-165 1764.17,-165 1764.17,-165"/>
<polygon fill="black" stroke="black" points="1764.17,-168.5 1774.17,-165 1764.17,-161.5 1764.17,-168.5"/>
</g>
<!-- SearchBarComponent -->
<g id="node17" class="node">
<title>SearchBarComponent</title>
<polygon fill="#ffffb3" stroke="black" points="968.63,-122 829.37,-122 829.37,-86 968.63,-86 968.63,-122"/>
<text text-anchor="middle" x="899" y="-99.8" font-family="Times,serif" font-size="14.00">SearchBarComponent</text>
</g>
<!-- SearchBarComponent&#45;&gt;AppModule -->
<g id="edge17" class="edge">
<title>SearchBarComponent&#45;&gt;AppModule</title>
<path fill="none" stroke="black" d="M899,-122.17C899,-141.09 899,-168 899,-168 899,-168 1764.22,-168 1764.22,-168"/>
<polygon fill="black" stroke="black" points="1764.22,-171.5 1774.22,-168 1764.22,-164.5 1764.22,-171.5"/>
</g>
<!-- ShowProductDetailsComponent -->
<g id="node18" class="node">
<title>ShowProductDetailsComponent</title>
<polygon fill="#ffffb3" stroke="black" points="811.42,-122 614.58,-122 614.58,-86 811.42,-86 811.42,-122"/>
<text text-anchor="middle" x="713" y="-99.8" font-family="Times,serif" font-size="14.00">ShowProductDetailsComponent</text>
</g>
<!-- ShowProductDetailsComponent&#45;&gt;AppModule -->
<g id="edge18" class="edge">
<title>ShowProductDetailsComponent&#45;&gt;AppModule</title>
<path fill="none" stroke="black" d="M713,-122.31C713,-142.15 713,-171 713,-171 713,-171 1764.11,-171 1764.11,-171"/>
<polygon fill="black" stroke="black" points="1764.11,-174.5 1774.11,-171 1764.11,-167.5 1764.11,-174.5"/>
</g>
<!-- SpinnerComponent -->
<g id="node19" class="node">
<title>SpinnerComponent</title>
<polygon fill="#ffffb3" stroke="black" points="596.38,-122 471.62,-122 471.62,-86 596.38,-86 596.38,-122"/>
<text text-anchor="middle" x="534" y="-99.8" font-family="Times,serif" font-size="14.00">SpinnerComponent</text>
</g>
<!-- SpinnerComponent&#45;&gt;AppModule -->
<g id="edge19" class="edge">
<title>SpinnerComponent&#45;&gt;AppModule</title>
<path fill="none" stroke="black" d="M534,-122.03C534,-142.77 534,-174 534,-174 534,-174 1764.07,-174 1764.07,-174"/>
<polygon fill="black" stroke="black" points="1764.07,-177.5 1774.07,-174 1764.07,-170.5 1764.07,-177.5"/>
</g>
<!-- UserComponent -->
<g id="node20" class="node">
<title>UserComponent</title>
<polygon fill="#ffffb3" stroke="black" points="453.76,-122 346.24,-122 346.24,-86 453.76,-86 453.76,-122"/>
<text text-anchor="middle" x="400" y="-99.8" font-family="Times,serif" font-size="14.00">UserComponent</text>
</g>
<!-- UserComponent&#45;&gt;AppModule -->
<g id="edge20" class="edge">
<title>UserComponent&#45;&gt;AppModule</title>
<path fill="none" stroke="black" d="M400,-122.29C400,-144.21 400,-178 400,-178 400,-178 1764.01,-178 1764.01,-178"/>
<polygon fill="black" stroke="black" points="1764.01,-181.5 1774.01,-178 1764.01,-174.5 1764.01,-181.5"/>
</g>
<!-- AppComponent  -->
<g id="node23" class="node">
<title>AppComponent </title>
<polygon fill="#80b1d3" stroke="black" points="1870.44,-252 1761.56,-252 1761.56,-216 1870.44,-216 1870.44,-252"/>
<text text-anchor="middle" x="1816" y="-229.8" font-family="Times,serif" font-size="14.00">AppComponent </text>
</g>
<!-- AppModule&#45;&gt;AppComponent  -->
<g id="edge22" class="edge">
<title>AppModule&#45;&gt;AppComponent </title>
<path fill="none" stroke="black" stroke-dasharray="1,5" d="M1816,-187.11C1816,-187.11 1816,-205.99 1816,-205.99"/>
<polygon fill="black" stroke="black" points="1812.5,-205.99 1816,-215.99 1819.5,-205.99 1812.5,-205.99"/>
</g>
<!-- AppRoutingModule -->
<g id="node22" class="node">
<title>AppRoutingModule</title>
<polygon fill="#8dd3c7" stroke="black" points="322.27,-122 319.27,-126 298.27,-126 295.27,-122 193.73,-122 193.73,-86 322.27,-86 322.27,-122"/>
<text text-anchor="middle" x="258" y="-99.8" font-family="Times,serif" font-size="14.00">AppRoutingModule</text>
</g>
<!-- AppRoutingModule&#45;&gt;AppModule -->
<g id="edge21" class="edge">
<title>AppRoutingModule&#45;&gt;AppModule</title>
<path fill="none" stroke="black" d="M258,-122.25C258,-145.02 258,-181 258,-181 258,-181 1764.33,-181 1764.33,-181"/>
<polygon fill="black" stroke="black" points="1764.33,-184.5 1774.33,-181 1764.33,-177.5 1764.33,-184.5"/>
</g>
<!-- AuthInterceptor -->
<g id="node24" class="node">
<title>AuthInterceptor</title>
<ellipse fill="#fdb462" stroke="black" cx="97" cy="-104" rx="72.91" ry="18"/>
<text text-anchor="middle" x="97" y="-99.8" font-family="Times,serif" font-size="14.00">AuthInterceptor</text>
</g>
<!-- AuthInterceptor&#45;&gt;AppModule -->
<g id="edge23" class="edge">
<title>AuthInterceptor&#45;&gt;AppModule</title>
<path fill="none" stroke="black" d="M97,-122.15C97,-145.76 97,-184 97,-184 97,-184 1763.93,-184 1763.93,-184"/>
<polygon fill="black" stroke="black" points="1763.93,-187.5 1773.93,-184 1763.93,-180.5 1763.93,-187.5"/>
</g>
</g>
</svg>
